<svg width="32" height="32" viewBox="0 0 32 32" fill="none" xmlns="http://www.w3.org/2000/svg">
<path d="M15.8393 12.1865C17.546 12.2665 17.986 13.7198 18.0127 14.3998H20.3993C20.2927 11.7598 18.4127 10.1465 15.7993 10.1465C12.8527 10.1465 10.666 11.9998 10.666 16.1865C10.666 18.7732 11.906 21.8398 15.786 21.8398C18.746 21.8398 20.3327 19.6398 20.3727 17.9065H17.986C17.946 18.6932 17.386 19.7465 15.8127 19.8265C14.066 19.7732 13.3327 18.4132 13.3327 16.1865C13.3327 12.3332 15.0393 12.2132 15.8393 12.1865ZM15.9993 2.6665C8.63935 2.6665 2.66602 8.63984 2.66602 15.9998C2.66602 23.3598 8.63935 29.3332 15.9993 29.3332C23.3594 29.3332 29.3327 23.3598 29.3327 15.9998C29.3327 8.63984 23.3594 2.6665 15.9993 2.6665ZM15.9993 26.6665C10.1193 26.6665 5.33268 21.8798 5.33268 15.9998C5.33268 10.1198 10.1193 5.33317 15.9993 5.33317C21.8793 5.33317 26.666 10.1198 26.666 15.9998C26.666 21.8798 21.8793 26.6665 15.9993 26.6665Z" fill="#E1E1E1" fill-opacity="0.6"/>
</svg>
