<svg width="62" height="62" viewBox="0 0 62 62" fill="none" xmlns="http://www.w3.org/2000/svg">
<path d="M12.9141 31L16.7271 24.9912C17.3987 23.932 17.7371 23.3998 18.1789 22.9684C18.6181 22.537 19.1451 22.2193 20.1991 21.5889L22.5809 20.1603C24.8077 18.8222 25.9211 18.1531 27.1534 18.0885C28.3856 18.0239 29.5559 18.5716 31.9041 19.6643L36.2829 21.7103C37.2465 22.1598 37.7296 22.382 38.1506 22.6997C38.4503 22.9236 38.7241 23.1777 38.9721 23.4618C39.3209 23.8648 39.5921 24.3402 40.1346 25.2908C41.0905 26.9622 41.5684 27.7967 42.2426 28.3883C42.718 28.8016 43.2605 29.1245 43.8443 29.3389C44.671 29.6438 45.601 29.6438 47.4558 29.6438H49.0807M29.7057 19.375L20.6641 36.1667M20.6641 36.1667L24.4021 41.4005C25.1471 42.4436 25.4777 43.7265 25.3297 44.9997C25.1817 46.273 24.5657 47.4458 23.6013 48.2903L16.7891 54.25M20.6641 36.1667H29.7057M29.7057 36.1667H33.5807C34.3828 36.1667 35.1739 36.3534 35.8913 36.7121C36.6088 37.0708 37.2328 37.5917 37.7141 38.2333L43.9141 46.5M29.7057 36.1667L38.7474 23.25M41.3307 11.625C41.3307 12.6527 40.9225 13.6383 40.1958 14.365C39.4691 15.0917 38.4834 15.5 37.4557 15.5C36.428 15.5 35.4424 15.0917 34.7157 14.365C33.989 13.6383 33.5807 12.6527 33.5807 11.625C33.5807 10.5973 33.989 9.61166 34.7157 8.88496C35.4424 8.15826 36.428 7.75 37.4557 7.75C38.4834 7.75 39.4691 8.15826 40.1958 8.88496C40.9225 9.61166 41.3307 10.5973 41.3307 11.625Z" stroke="#F45600" stroke-width="3.875" stroke-linecap="round" stroke-linejoin="round"/>
</svg>
