<svg width="62" height="62" viewBox="0 0 62 62" fill="none" xmlns="http://www.w3.org/2000/svg">
<path d="M34.6174 56.575L31.0008 52.9584L40.1716 43.7875L18.2133 21.8292L9.04245 31L5.42578 27.3834L9.04245 23.6375L5.42578 20.0209L10.8508 14.5959L7.23411 10.85L10.8508 7.23338L14.5966 10.85L20.0216 5.42505L23.6383 9.04172L27.3841 5.42505L31.0008 9.04172L21.8299 18.2125L43.7883 40.1709L52.9591 31L56.5758 34.6167L52.9591 38.3625L56.5758 41.9792L51.1508 47.4042L54.7674 51.15L51.1508 54.7667L47.4049 51.15L41.9799 56.575L38.3633 52.9584L34.6174 56.575Z" fill="#F45600"/>
</svg>
