<svg width="62" height="62" viewBox="0 0 62 62" fill="none" xmlns="http://www.w3.org/2000/svg">
<path fill-rule="evenodd" clip-rule="evenodd" d="M13.7227 13.0549C14.3827 12.6584 15.3993 12.2709 16.7917 12.2709C18.1841 12.2709 19.2006 12.6584 19.8607 13.0549C20.8798 13.6646 21.1846 14.7082 21.2001 15.4522C21.2298 16.9351 21.3125 21.8253 21.3125 31C21.3125 40.1748 21.2298 45.065 21.2001 46.5478C21.1846 47.2905 20.8798 48.3355 19.8607 48.9452C19.2006 49.3417 18.1841 49.7292 16.7917 49.7292C15.3993 49.7292 14.3827 49.3417 13.7227 48.9452C12.7035 48.3355 12.3987 47.2918 12.3832 46.5478C12.3535 45.0663 12.2708 40.1748 12.2708 31C12.2708 21.8253 12.3535 16.9351 12.3832 15.4522C12.3987 14.7095 12.7035 13.6646 13.7227 13.0549ZM48.2773 13.0549C47.6173 12.6584 46.6007 12.2709 45.2083 12.2709C43.8159 12.2709 42.7994 12.6584 42.1393 13.0549C41.1215 13.6646 40.8154 14.7082 40.7999 15.4522C40.7702 16.9338 40.6875 21.8253 40.6875 31C40.6875 40.1748 40.7702 45.065 40.7999 46.5478C40.8154 47.2905 41.1202 48.3355 42.1393 48.9452C42.7994 49.3417 43.8159 49.7292 45.2083 49.7292C46.6007 49.7292 47.6173 49.3417 48.2773 48.9452C49.2952 48.3355 49.6013 47.2918 49.6168 46.5478C49.6465 45.065 49.7292 40.1748 49.7292 31C49.7292 21.8253 49.6465 16.9351 49.6168 15.4522C49.6013 14.7095 49.2952 13.6646 48.2773 13.0549ZM5.8125 18.7292C4.96 18.7292 4.27671 18.8842 3.75358 19.087C2.44125 19.5959 2.03567 20.8385 2.01629 21.6703C1.99046 22.829 1.9375 25.7998 1.9375 31C1.9375 36.2003 1.98917 39.1711 2.015 40.3298C2.03437 41.1616 2.44125 42.4055 3.75358 42.9131C4.27671 43.1159 4.96 43.2709 5.8125 43.2709C6.665 43.2709 7.34829 43.1159 7.87142 42.9131C9.18375 42.4055 9.58933 41.1616 9.60871 40.3298C9.63454 39.1711 9.6875 36.2003 9.6875 31C9.6875 25.7998 9.63583 22.829 9.61 21.6703C9.59062 20.8385 9.18375 19.5946 7.87142 19.087C7.21313 18.8415 6.51502 18.7202 5.8125 18.7292ZM58.2464 19.087C57.5881 18.8415 56.89 18.7202 56.1875 18.7292C55.335 18.7292 54.6517 18.8842 54.1286 19.087C52.8175 19.5959 52.4107 20.8385 52.3913 21.6703C52.3655 22.829 52.3125 25.7998 52.3125 31C52.3125 36.2003 52.3642 39.1711 52.39 40.3298C52.4094 41.1616 52.8162 42.4055 54.1286 42.9131C54.6517 43.1159 55.3363 43.2709 56.1875 43.2709C57.04 43.2709 57.7233 43.1159 58.2464 42.9131C59.5575 42.4055 59.9643 41.1616 59.9837 40.3298C60.0095 39.1711 60.0625 36.2003 60.0625 31C60.0625 25.7998 60.0108 22.829 59.985 21.6703C59.9656 20.8385 59.5588 19.5946 58.2464 19.087ZM23.8958 34.6903V27.3097C23.8958 26.0852 24.8982 25.442 25.9664 25.3503C26.1868 25.3296 26.5162 25.3072 26.9545 25.2831C27.8328 25.234 29.1594 25.1875 31 25.1875C32.8406 25.1875 34.1685 25.234 35.0455 25.2831C35.4838 25.3072 35.8132 25.3296 36.0336 25.3503C37.1018 25.4407 38.1042 26.0852 38.1042 27.3097V34.6903C38.1042 35.9161 37.1018 36.5581 36.0336 36.6498C35.8132 36.6705 35.4838 36.6928 35.0455 36.717C34.1672 36.766 32.8406 36.8125 31 36.8125C29.1594 36.8125 27.8315 36.766 26.9545 36.717C26.5162 36.6928 26.1868 36.6705 25.9664 36.6498C24.8982 36.5594 23.8958 35.9148 23.8958 34.6903Z" fill="#F45600"/>
</svg>
