<svg width="62" height="62" viewBox="0 0 62 62" fill="none" xmlns="http://www.w3.org/2000/svg">
<path d="M56.0672 2.45825L38.218 9.16079L44.6238 13.1993C33.1805 27.6094 16.627 36.4856 2.64062 39.8641L6.60281 47.0813C22.3184 41.959 38.9566 32.7196 49.6734 16.3961L54.5535 19.4719L56.0672 2.45825ZM56.9996 16.5899L56.4184 23.2258L50.2063 19.3024C49.9883 19.6293 49.7582 19.9442 49.5281 20.2711V58.9727H58.9734V16.5899H56.9996ZM38.7629 32.0899C37.225 33.4219 35.6387 34.6813 34.0281 35.868V58.9727H43.4734V32.0899H38.7629ZM23.7836 42.2618C22.0398 43.1821 20.2961 44.0297 18.5281 44.829V58.9727H27.9734V42.2618H23.7836ZM3.02813 47.5899V58.9727H12.4734V47.5899H11.7856C9.99102 48.2559 8.19762 48.8735 6.41512 49.4426L5.5602 49.709L4.3977 47.5899H3.02813Z" fill="#F45600"/>
</svg>
