<svg width="62" height="62" viewBox="0 0 62 62" fill="none" xmlns="http://www.w3.org/2000/svg">
<g clip-path="url(#clip0_426_3448)">
<path d="M49.4062 44.2597C50.7383 44.9258 51.9391 45.7431 53.0088 46.7119C54.0784 47.6806 54.9867 48.7604 55.7334 49.9511C56.4801 51.1419 57.0654 52.4336 57.4893 53.8261C57.9131 55.2187 58.125 56.6517 58.125 58.125H54.25C54.25 56.5306 53.9473 55.027 53.3418 53.6142C52.7363 52.2015 51.9089 50.9703 50.8594 49.9209C49.8099 48.8714 48.5687 48.0338 47.1357 47.4082C45.7028 46.7825 44.1992 46.4798 42.625 46.5C41.0104 46.5 39.5068 46.8027 38.1143 47.4082C36.7217 48.0136 35.4906 48.8411 34.4209 49.8906C33.3512 50.9401 32.5137 52.1813 31.9082 53.6142C31.3027 55.0472 31 56.5508 31 58.125H27.125C27.125 56.6517 27.3268 55.2187 27.7305 53.8261C28.1341 52.4336 28.7194 51.1419 29.4863 49.9511C30.2533 48.7604 31.1715 47.6806 32.2412 46.7119C33.3109 45.7431 34.5117 44.9258 35.8438 44.2597C34.3301 43.1699 33.1494 41.8076 32.3018 40.1728C31.4541 38.5381 31.0202 36.7721 31 34.875C31 33.2806 30.6973 31.777 30.0918 30.3642C29.4863 28.9515 28.6589 27.7203 27.6094 26.6709C26.5599 25.6214 25.3187 24.7838 23.8857 24.1582C22.4528 23.5325 20.9492 23.2298 19.375 23.25C17.7604 23.25 16.2568 23.5527 14.8643 24.1582C13.4717 24.7636 12.2406 25.5911 11.1709 26.6406C10.1012 27.6901 9.26367 28.9313 8.6582 30.3642C8.05273 31.7972 7.75 33.3008 7.75 34.875H3.875C3.875 33.4017 4.07682 31.9687 4.48047 30.5761C4.88411 29.1836 5.4694 27.8919 6.23633 26.7011C7.00326 25.5104 7.92155 24.4306 8.99121 23.4619C10.0609 22.4931 11.2617 21.6758 12.5938 21.0097C11.0801 19.9199 9.89941 18.5576 9.05176 16.9228C8.2041 15.2881 7.77018 13.5221 7.75 11.625C7.75 10.0306 8.05273 8.52699 8.6582 7.11423C9.26367 5.70147 10.0911 4.47035 11.1406 3.42087C12.1901 2.37139 13.4212 1.53382 14.834 0.908173C16.2467 0.282522 17.7604 -0.0202128 19.375 -3.05176e-05C20.9694 -3.05176e-05 22.473 0.302704 23.8857 0.908173C25.2985 1.51364 26.5296 2.34112 27.5791 3.39059C28.6286 4.44007 29.4661 5.68128 30.0918 7.11423C30.7174 8.54717 31.0202 10.0508 31 11.625C31 13.5221 30.5762 15.2881 29.7285 16.9228C28.8809 18.5576 27.6901 19.9199 26.1562 21.0097C27.6901 21.7767 29.0625 22.7656 30.2734 23.9765C31.4844 25.1875 32.4733 26.5599 33.2402 28.0937C34.3301 26.58 35.6924 25.3994 37.3271 24.5517C38.9619 23.7041 40.7279 23.2702 42.625 23.25C44.2194 23.25 45.723 23.5527 47.1357 24.1582C48.5485 24.7636 49.7796 25.5911 50.8291 26.6406C51.8786 27.6901 52.7161 28.9313 53.3418 30.3642C53.9674 31.7972 54.2702 33.3008 54.25 34.875C54.25 36.7721 53.8262 38.5381 52.9785 40.1728C52.1309 41.8076 50.9401 43.1699 49.4062 44.2597ZM19.375 19.375C20.4447 19.375 21.4437 19.1731 22.3721 18.7695C23.3005 18.3659 24.1279 17.8108 24.8545 17.1045C25.5811 16.3981 26.1361 15.5807 26.5195 14.6523C26.903 13.7239 27.1048 12.7148 27.125 11.625C27.125 10.5553 26.9232 9.55628 26.5195 8.6279C26.1159 7.69951 25.5609 6.87204 24.8545 6.14548C24.1481 5.41891 23.3307 4.8639 22.4023 4.48044C21.474 4.09697 20.4648 3.89515 19.375 3.87497C18.3053 3.87497 17.3063 4.07679 16.3779 4.48044C15.4495 4.88408 14.6221 5.4391 13.8955 6.14548C13.1689 6.85186 12.6139 7.66924 12.2305 8.59763C11.847 9.52601 11.6452 10.5351 11.625 11.625C11.625 12.6946 11.8268 13.6937 12.2305 14.622C12.6341 15.5504 13.1891 16.3779 13.8955 17.1045C14.6019 17.831 15.4193 18.386 16.3477 18.7695C17.276 19.153 18.2852 19.3548 19.375 19.375ZM42.625 42.625C43.6947 42.625 44.6937 42.4231 45.6221 42.0195C46.5505 41.6159 47.3779 41.0608 48.1045 40.3545C48.8311 39.6481 49.3861 38.8307 49.7695 37.9023C50.153 36.9739 50.3548 35.9648 50.375 34.875C50.375 33.8053 50.1732 32.8063 49.7695 31.8779C49.3659 30.9495 48.8109 30.122 48.1045 29.3955C47.3981 28.6689 46.5807 28.1139 45.6523 27.7304C44.724 27.347 43.7148 27.1452 42.625 27.125C41.5553 27.125 40.5563 27.3268 39.6279 27.7304C38.6995 28.1341 37.8721 28.6891 37.1455 29.3955C36.4189 30.1019 35.8639 30.9192 35.4805 31.8476C35.097 32.776 34.8952 33.7851 34.875 34.875C34.875 35.9446 35.0768 36.9437 35.4805 37.872C35.8841 38.8004 36.4391 39.6279 37.1455 40.3545C37.8519 41.081 38.6693 41.636 39.5977 42.0195C40.526 42.403 41.5352 42.6048 42.625 42.625ZM46.5 7.74997H34.875V3.87497H50.375V19.375H46.5V7.74997Z" fill="#F45600"/>
</g>
<defs>
<clipPath id="clip0_426_3448">
<rect width="62" height="62" fill="white"/>
</clipPath>
</defs>
</svg>
