<svg width="62" height="62" viewBox="0 0 62 62" fill="none" xmlns="http://www.w3.org/2000/svg">
<path d="M31.0026 28.4166C32.4234 28.4166 33.6402 27.9111 34.6529 26.9002C35.6655 25.8892 36.171 24.6725 36.1693 23.2499C36.1676 21.8274 35.6621 20.6115 34.6529 19.6023C33.6436 18.593 32.4269 18.0867 31.0026 18.0833C29.5783 18.0798 28.3624 18.5861 27.3549 19.6023C26.3474 20.6184 25.8411 21.8343 25.8359 23.2499C25.8308 24.6656 26.3371 25.8823 27.3549 26.9002C28.3728 27.918 29.5887 28.4235 31.0026 28.4166ZM21.6639 51.6666V49.0833H29.7109V39.3854C27.5013 39.2098 25.4691 38.3082 23.6143 36.6807C21.756 35.0532 20.6219 33.1501 20.212 30.9715C17.4806 30.6494 15.1513 29.5291 13.2241 27.6106C11.2969 25.692 10.3342 23.3774 10.3359 20.6666V15.4999H19.7754V10.3333H42.2298V15.4999H51.6693V20.6666C51.6693 23.3756 50.7066 25.6903 48.7811 27.6106C46.8557 29.5309 44.5264 30.6503 41.7932 30.9689C41.3833 33.1493 40.2501 35.0532 38.3935 36.6807C36.537 38.3082 34.5039 39.2098 32.2943 39.3854V49.0833H40.3439V51.6666H21.6639ZM19.7754 28.1996V18.0833H12.9193V20.6666C12.9193 22.6334 13.5754 24.3237 14.8878 25.7377C16.2001 27.1516 17.8293 27.9723 19.7754 28.1996ZM42.2298 28.1996C44.1776 27.9705 45.8077 27.149 47.12 25.7351C48.4324 24.3211 49.0877 22.6316 49.0859 20.6666V18.0833H42.2298V28.1996Z" fill="#F45600"/>
</svg>
