<svg width="21" height="23" viewBox="0 0 21 23" fill="none" xmlns="http://www.w3.org/2000/svg">
<path d="M3.37668 22.6112C2.8691 22.9495 2.25945 23.0517 1.6875 22.9125L11.7373 12.5503L14.9944 15.9087L3.37668 22.6112Z" fill="white"/>
<path d="M0.4416 22.0701C0.161368 21.6859 0 21.2141 0 20.7151V2.25694C0 1.75788 0.161368 1.28611 0.4416 0.901917L10.7066 11.486L0.4416 22.0701Z" fill="white"/>
<path d="M19.2494 13.4575L16.3221 15.1462L12.7734 11.4873L16.3223 7.82812L19.2499 9.51707C19.9513 9.92221 20.37 10.6587 20.37 11.4873C20.37 12.3158 19.9513 13.0522 19.2494 13.4575Z" fill="white"/>
<path d="M11.7367 10.4231L1.6875 0.0614998C1.85221 0.021472 2.01992 0 2.18755 0C2.60198 0 3.01487 0.121497 3.37609 0.362106L14.9939 7.06461L11.7367 10.4231Z" fill="white"/>
</svg>
